<svg xmlns="http://www.w3.org/2000/svg" viewBox="0 0 64 64"><polygon fill="#00c8ae" stroke="#2b385c" stroke-linecap="round" stroke-linejoin="round" points="56 21.45 32 53.66 41.37 21.45 56 21.45"/><polygon fill="#00c8ae" stroke="#2b385c" stroke-linecap="round" stroke-linejoin="round" points="32 53.66 8 21.45 22.63 21.45 32 53.66"/><polygon fill="#00f7e3" stroke="#2b385c" stroke-linecap="round" stroke-linejoin="round" points="22.63 21.45 8 21.45 13.26 10.34 22.63 21.45"/><polygon fill="#00e8ca" stroke="#2b385c" stroke-linecap="round" stroke-linejoin="round" points="32 10.34 22.63 21.45 13.26 10.34 32 10.34"/><polygon fill="#00e8ca" stroke="#2b385c" stroke-linecap="round" stroke-linejoin="round" points="50.74 10.34 41.37 21.45 32 10.34 50.74 10.34"/><polygon fill="#00f7e3" stroke="#2b385c" stroke-linecap="round" stroke-linejoin="round" points="56 21.45 41.37 21.45 50.74 10.34 56 21.45"/><polygon fill="#00e8ca" stroke="#2b385c" stroke-linecap="round" stroke-linejoin="round" points="41.37 21.45 32 53.66 22.63 21.45 41.37 21.45"/><polygon fill="#00f7e3" stroke="#2b385c" stroke-linecap="round" stroke-linejoin="round" points="41.37 21.45 22.63 21.45 32 10.34 41.37 21.45"/></svg>